<?xml version="1.0" standalone="no"?>
<!DOCTYPE svg PUBLIC "-//W3C//DTD SVG 20010904//EN"
 "http://www.w3.org/TR/2001/REC-SVG-20010904/DTD/svg10.dtd">
<svg version="1.0" xmlns="http://www.w3.org/2000/svg"
 width="150.000000pt" height="44.000000pt" viewBox="0 0 150.000000 44.000000"
 preserveAspectRatio="xMidYMid meet">
<metadata>
Created by potrace 1.16, written by Peter Selinger 2001-2019
</metadata>
<g transform="translate(0.000000,44.000000) scale(0.040107,-0.030137)"
fill="#000000" stroke="none">
<path d="M232 1341 c-51 -9 -90 -36 -117 -82 -19 -32 -20 -55 -23 -476 -2
-252 1 -477 6 -523 9 -73 14 -86 43 -116 18 -19 50 -39 70 -44 24 -7 616 -9
1681 -8 1632 3 1643 3 1678 23 19 12 43 36 55 55 19 34 20 50 20 550 l0 515
-23 36 c-12 20 -39 45 -60 55 -36 18 -100 19 -1662 20 -894 1 -1644 -1 -1668
-5z m1592 -272 c50 -23 58 -112 13 -144 -36 -25 -92 -19 -116 11 -30 38 -27
80 8 115 32 31 55 36 95 18z m149 2 c33 -13 41 -39 22 -68 -15 -22 -15 -26 5
-58 21 -33 21 -35 3 -35 -10 0 -27 14 -36 30 -10 17 -22 30 -28 30 -5 0 -9
-13 -9 -30 0 -23 -4 -30 -20 -30 -18 0 -20 7 -20 78 0 43 3 82 7 85 9 10 48 9
76 -2z m680 -22 c24 -30 22 -87 -5 -116 -28 -30 -89 -32 -118 -3 -22 22 -27
78 -9 111 23 43 99 47 132 8z m-43 -400 c0 -134 1 -141 21 -146 14 -4 19 -12
17 -27 -4 -26 -45 -33 -73 -12 -18 13 -20 28 -23 170 l-3 156 30 0 31 0 0
-141z m130 0 c0 -134 1 -141 21 -146 13 -4 19 -12 17 -27 -4 -27 -32 -32 -63
-12 -25 16 -25 18 -25 171 l0 155 25 0 25 0 0 -141z m-524 120 c45 -12 48 -16
38 -43 -4 -11 -11 -13 -31 -5 -102 38 -186 -44 -154 -152 15 -50 47 -71 103
-67 40 3 43 5 46 36 3 31 2 32 -32 32 -29 0 -36 4 -36 20 0 18 7 20 60 20 l60
0 0 -65 c0 -56 -3 -66 -22 -76 -37 -20 -138 -17 -174 5 -63 38 -89 125 -60
200 20 52 42 73 93 92 47 16 54 17 109 3z m-779 -154 l61 -155 -30 0 c-25 0
-32 6 -45 40 l-16 40 -62 0 -62 0 -13 -40 c-11 -34 -17 -40 -42 -40 -15 0 -28
2 -28 5 0 4 89 232 110 283 7 15 18 22 37 22 27 0 31 -7 90 -155z m272 48 c20
-23 23 -34 19 -90 -5 -82 -34 -116 -100 -117 l-43 -1 -5 -45 c-4 -40 -8 -45
-32 -48 l-28 -3 0 165 0 166 24 0 c13 0 26 -5 28 -11 2 -6 14 -5 33 6 38 19
73 12 104 -22z m215 26 c28 -13 56 -64 56 -103 0 -14 -7 -43 -16 -65 -18 -47
-70 -76 -115 -67 -29 5 -29 5 -29 -44 0 -49 -1 -50 -30 -50 l-30 0 0 165 0
165 30 0 c17 0 30 -4 30 -9 0 -6 12 -3 28 5 33 17 44 17 76 3z m533 1 c41 -15
53 -47 53 -145 0 -84 0 -85 -25 -85 -14 0 -25 4 -25 9 0 5 -20 1 -45 -8 -42
-15 -45 -15 -72 5 -20 15 -29 31 -31 56 -4 46 23 69 91 77 52 6 54 7 46 30 -9
22 -13 23 -65 18 -52 -5 -55 -5 -52 16 5 32 69 46 125 27z m487 0 c30 -11 51
-43 60 -87 l6 -33 -81 0 c-79 0 -80 0 -74 -22 11 -38 35 -50 87 -45 36 3 48 0
53 -11 13 -34 -84 -53 -138 -27 -42 19 -57 50 -57 114 0 88 68 140 144 111z
m238 4 c10 -9 -4 -44 -17 -44 -7 0 -24 -9 -39 -21 -24 -19 -26 -26 -26 -95 l0
-74 -30 0 -30 0 0 115 0 115 30 0 c21 0 30 -5 30 -16 0 -13 5 -12 26 5 27 21
46 26 56 15z m108 -80 c13 -41 27 -77 31 -79 3 -3 17 31 29 75 22 77 24 80 52
80 20 0 29 -4 26 -12 -103 -295 -110 -307 -182 -315 -46 -6 -48 -5 -44 18 2
17 10 25 29 27 15 2 35 12 45 23 17 18 16 24 -24 133 -23 63 -42 117 -42 120
0 3 13 6 28 6 27 0 30 -5 52 -76z"/>
</g>
</svg>
