<svg width="131" height="44" viewBox="0 0 131 44" fill="none" xmlns="http://www.w3.org/2000/svg">
<path d="M120.568 0H8.23399C7.50026 0.011333 6.7684 0.0775158 6.04445 0.198C5.32063 0.323684 4.61955 0.557259 3.96439 0.891C3.30492 1.22527 2.70553 1.66766 2.19087 2.2C1.66496 2.71797 1.2284 3.32018 0.899039 3.982C0.566885 4.64029 0.33442 5.34472 0.209335 6.072C0.0871632 6.79894 0.024915 7.53477 0.0232239 8.272C0.0232239 8.613 0.0232239 8.954 0.0232239 9.284V34.716C0.0232239 35.057 0.0232239 35.387 0.0232239 35.728C0.024915 36.4652 0.0871632 37.2011 0.209335 37.928C0.33432 38.6588 0.566763 39.3669 0.899039 40.029C1.23146 40.6857 1.66774 41.2838 2.19087 41.8C2.70638 42.3284 3.30572 42.7671 3.96439 43.098C4.61955 43.4317 5.32063 43.6653 6.04445 43.791C6.7684 43.9115 7.50026 43.9777 8.23399 43.989H122.769C123.502 43.9782 124.234 43.912 124.958 43.791C125.685 43.6637 126.39 43.4302 127.049 43.098C127.706 42.7642 128.305 42.3259 128.823 41.8C129.339 41.278 129.775 40.681 130.115 40.029C130.438 39.3644 130.667 38.657 130.793 37.928C130.914 37.2007 130.98 36.4653 130.99 35.728C130.99 35.387 130.99 35.057 130.99 34.716V9.284C130.99 8.954 130.99 8.613 130.99 8.272C130.98 7.53474 130.914 6.79934 130.793 6.072C130.667 5.34648 130.438 4.64275 130.115 3.982C129.778 3.32484 129.342 2.72378 128.823 2.2C128.305 1.67414 127.706 1.23583 127.049 0.902C126.39 0.569772 125.685 0.336299 124.958 0.209C124.234 0.0880269 123.502 0.0218409 122.769 0.011H120.579L120.568 0Z" fill="#B7B7B7"/>
<path d="M9.23984 43.032H8.25455C7.56971 43.0439 6.88504 42.9998 6.20734 42.9C5.56824 42.774 4.95182 42.5515 4.37907 42.24C3.8144 41.9611 3.30007 41.5893 2.85734 41.14C2.40969 40.6915 2.03969 40.171 1.76258 39.6C1.47102 39.0255 1.268 38.4098 1.16045 37.774C1.04915 37.0939 0.990586 36.4062 0.985291 35.717C0.985291 35.486 0.985291 34.705 0.985291 34.705V9.284C0.985291 9.284 0.985291 8.52501 0.985291 8.30501C0.990142 7.6158 1.04871 6.92802 1.16045 6.248C1.26067 5.60486 1.46012 4.98137 1.75163 4.4C2.02638 3.82764 2.39666 3.30678 2.8464 2.86C3.29693 2.4151 3.8141 2.04393 4.37907 1.76C4.95087 1.46705 5.56363 1.26306 6.19639 1.155C6.87684 1.0426 7.56498 0.983754 8.25455 0.979004H122.756C123.439 0.984805 124.119 1.04365 124.793 1.155C125.428 1.26537 126.044 1.46923 126.621 1.76C127.756 2.33719 128.68 3.26156 129.259 4.4C129.544 4.97253 129.743 5.5841 129.85 6.215C129.96 6.89921 130.022 7.59019 130.037 8.28301V9.262C130.037 9.68001 130.037 10.076 130.037 10.472V33.506C130.037 33.913 130.037 34.298 130.037 34.694V35.717C130.022 36.3989 129.96 37.0789 129.85 37.752C129.746 38.3907 129.547 39.01 129.259 39.589C128.977 40.1537 128.608 40.6698 128.165 41.118C127.718 41.5678 127.2 41.9396 126.632 42.218C126.063 42.5421 125.445 42.7723 124.804 42.9C124.127 43.0145 123.442 43.0734 122.756 43.076H9.23984V43.032Z" fill="black"/>
<path d="M27.1174 22.33C27.127 21.4113 27.3692 20.5101 27.8212 19.7115C28.2732 18.9128 28.9202 18.243 29.7011 17.765C29.2049 17.0544 28.5509 16.4697 27.7908 16.0573C27.0307 15.6449 26.1854 15.4161 25.322 15.389C23.4937 15.191 21.7092 16.489 20.7677 16.489C19.8262 16.489 18.3702 15.389 16.8156 15.389C15.8112 15.4218 14.8324 15.7157 13.9747 16.242C13.117 16.7683 12.4098 17.5091 11.922 18.392C9.8529 22.121 11.3856 27.5 13.4109 30.514C14.429 31.977 15.6004 33.605 17.166 33.539C18.7315 33.473 19.246 32.571 21.0852 32.571C22.9244 32.571 23.428 33.539 25.0154 33.506C26.6029 33.473 27.6757 32.043 28.6501 30.569C29.3775 29.5299 29.939 28.3831 30.3141 27.17C29.3661 26.7692 28.5571 26.096 27.9884 25.235C27.4197 24.374 27.1167 23.3634 27.1174 22.33Z" fill="white"/>
<path d="M24.0849 13.431C24.9696 12.3578 25.4052 10.9816 25.3001 9.59204C23.9431 9.7392 22.6898 10.3904 21.7859 11.418C20.9 12.4359 20.4513 13.7647 20.5379 15.114C21.2172 15.1208 21.8892 14.9728 22.5035 14.6814C23.1178 14.3899 23.6585 13.9624 24.0849 13.431Z" fill="white"/>
<path d="M46.3087 29.8539H41.1304L39.8824 33.5499H37.6929L42.5974 19.8879H44.8855L49.7901 33.5499H47.6005L46.3087 29.8539ZM41.6669 28.1489H45.7723L43.7907 22.1539H43.736L41.6669 28.1489Z" fill="white"/>
<path d="M60.3874 28.6C60.3874 31.691 58.7343 33.682 56.2492 33.682C55.6151 33.709 54.9863 33.5561 54.4346 33.241C53.8828 32.9259 53.4304 32.4612 53.1291 31.9V36.828H51.049V23.628H53.0196V25.3C53.3396 24.7469 53.8028 24.2912 54.3598 23.9813C54.9169 23.6714 55.5471 23.5189 56.1835 23.54C58.7343 23.485 60.3874 25.476 60.3874 28.6ZM58.2964 28.6C58.2964 26.587 57.2016 25.3 55.6799 25.3C54.1582 25.3 53.0744 26.653 53.0744 28.6C53.0744 30.547 54.1691 31.955 55.6799 31.955C57.1907 31.955 58.2964 30.602 58.2964 28.6Z" fill="white"/>
<path d="M71.2913 28.5999C71.2913 31.6909 69.6492 33.6819 67.164 33.6819C66.5298 33.7102 65.9004 33.5579 65.3484 33.2427C64.7965 32.9274 64.3443 32.462 64.044 31.8999V36.8279H61.9639V23.6279H63.9345V25.2999C64.2536 24.7485 64.715 24.2939 65.27 23.9841C65.8249 23.6743 66.4528 23.5208 67.0874 23.5399C69.6382 23.4849 71.2913 25.4759 71.2913 28.5999ZM69.2003 28.5999C69.2003 26.5869 68.1712 25.2999 66.5838 25.2999C64.9964 25.2999 63.9892 26.6529 63.9892 28.5999C63.9892 30.5469 65.0293 31.8999 66.5838 31.8999C68.1384 31.8999 69.2003 30.6019 69.2003 28.5999Z" fill="white"/>
<path d="M78.5058 29.7001C78.6591 31.0531 79.9619 31.9001 81.7901 31.9001C83.6184 31.9001 84.7351 31.0091 84.7351 29.7881C84.7351 28.5671 83.9906 28.0941 82.2281 27.6541L80.4655 27.2251C77.9694 26.6201 76.8199 25.4541 76.8199 23.5511C76.8199 21.1861 78.8562 19.5691 81.7573 19.5691C84.6584 19.5691 86.6071 21.1861 86.6728 23.5511H84.5818C84.4614 22.1871 83.3338 21.3511 81.7026 21.3511C80.0714 21.3511 78.9438 22.1761 78.9438 23.3971C78.9438 24.3541 79.6554 24.9261 81.407 25.3661L82.9068 25.7291C85.6985 26.3891 86.8589 27.5221 86.8589 29.5131C86.8589 32.0761 84.8227 33.6711 81.604 33.6711C78.5934 33.6711 76.5572 32.1091 76.4258 29.6451L78.5058 29.7001Z" fill="white"/>
<path d="M91.249 21.23V23.584H93.132V25.201H91.249V30.701C91.249 31.548 91.6212 31.944 92.4532 31.944C92.6756 31.9576 92.8986 31.9576 93.121 31.944V33.55C92.7601 33.6183 92.3935 33.6515 92.0262 33.649C90.0119 33.649 89.2346 32.89 89.2346 30.954V25.201H87.7567V23.584H89.2017V21.23H91.249Z" fill="white"/>
<path d="M94.2158 28.6001C94.2158 25.4651 96.055 23.4961 98.9233 23.4961C101.792 23.4961 103.62 25.4651 103.62 28.6001C103.62 31.7351 101.813 33.6711 98.9233 33.6711C96.0331 33.6711 94.2158 31.7131 94.2158 28.6001ZM101.551 28.6001C101.551 26.4551 100.565 25.1791 98.9233 25.1791C97.2811 25.1791 96.3396 26.4001 96.3396 28.6001C96.3396 30.8001 97.314 32.0211 98.9671 32.0211C100.62 32.0211 101.551 30.7231 101.551 28.6001Z" fill="white"/>
<path d="M105.306 23.584H107.287V25.3C107.42 24.7714 107.73 24.3047 108.164 23.9782C108.599 23.6518 109.132 23.4854 109.674 23.507C109.91 23.5032 110.145 23.529 110.375 23.584V25.498C110.089 25.3788 109.785 25.3118 109.477 25.3C109.171 25.2775 108.864 25.3239 108.579 25.4358C108.293 25.5477 108.036 25.7223 107.826 25.9469C107.616 26.1714 107.459 26.4403 107.366 26.7337C107.273 27.0272 107.246 27.3378 107.287 27.643V33.55H105.306V23.584Z" fill="white"/>
<path d="M119.746 30.6239C119.472 32.4279 117.72 33.6709 115.487 33.6709C112.597 33.6709 110.812 31.7239 110.812 28.6109C110.812 25.4979 112.608 23.4629 115.4 23.4629C118.191 23.4629 119.866 25.3549 119.866 28.3799V29.0729H112.86V29.2049C112.828 29.5714 112.875 29.9403 112.996 30.2874C113.118 30.6344 113.311 30.9515 113.564 31.2178C113.816 31.4841 114.122 31.6933 114.461 31.8318C114.801 31.9703 115.165 32.0347 115.531 32.0209C116.011 32.0659 116.493 31.9544 116.905 31.7028C117.317 31.4511 117.638 31.0728 117.819 30.6239H119.746ZM112.871 27.6429H117.83C117.848 27.3138 117.798 26.9845 117.684 26.6757C117.569 26.3669 117.392 26.0853 117.164 25.8487C116.935 25.6121 116.661 25.4255 116.357 25.3007C116.053 25.176 115.727 25.1158 115.4 25.1239C115.069 25.1224 114.741 25.1865 114.435 25.3123C114.129 25.4381 113.851 25.6232 113.616 25.8571C113.381 26.091 113.194 26.3691 113.066 26.6755C112.939 26.9819 112.872 27.3106 112.871 27.6429Z" fill="white"/>
<path d="M41.4151 9.60289C41.8446 9.57247 42.2755 9.63888 42.6762 9.79725C43.0769 9.95563 43.4373 10.202 43.7311 10.5183C44.0249 10.8345 44.2447 11.2128 44.3743 11.6254C44.504 12.038 44.5402 12.4744 44.4804 12.9029C44.4804 14.9929 43.3857 16.2029 41.4151 16.2029H39.0504V9.60289H41.4151ZM40.0685 15.2349H41.2947C41.602 15.2598 41.9109 15.2147 42.1984 15.1029C42.4859 14.991 42.7446 14.8154 42.9551 14.5891C43.1656 14.3628 43.3225 14.0916 43.4142 13.7958C43.5058 13.5 43.5297 13.1873 43.4842 12.8809C43.5276 12.5749 43.5021 12.263 43.4097 11.9681C43.3173 11.6733 43.1604 11.403 42.9503 11.1772C42.7402 10.9514 42.4825 10.7757 42.196 10.6632C41.9094 10.5506 41.6015 10.5041 41.2947 10.5269H40.0685V15.2349Z" fill="white"/>
<path d="M45.6299 13.6841C45.608 13.3637 45.652 13.0421 45.759 12.7394C45.866 12.4368 46.0337 12.1594 46.2519 11.9246C46.4701 11.6899 46.734 11.5027 47.0272 11.3747C47.3204 11.2467 47.6366 11.1807 47.9563 11.1807C48.276 11.1807 48.5922 11.2467 48.8854 11.3747C49.1787 11.5027 49.4425 11.6899 49.6607 11.9246C49.8789 12.1594 50.0467 12.4368 50.1537 12.7394C50.2607 13.0421 50.3046 13.3637 50.2827 13.6841C50.3046 14.0046 50.2607 14.3261 50.1537 14.6288C50.0467 14.9315 49.8789 15.2088 49.6607 15.4436C49.4425 15.6783 49.1787 15.8655 48.8854 15.9935C48.5922 16.1215 48.276 16.1876 47.9563 16.1876C47.6366 16.1876 47.3204 16.1215 47.0272 15.9935C46.734 15.8655 46.4701 15.6783 46.2519 15.4436C46.0337 15.2088 45.866 14.9315 45.759 14.6288C45.652 14.3261 45.608 14.0046 45.6299 13.6841ZM49.2755 13.6841C49.2755 12.5841 48.8048 11.9901 47.9618 11.9901C47.1188 11.9901 46.6371 12.6171 46.6371 13.6841C46.6371 14.7511 47.075 15.4001 47.9618 15.4001C48.8485 15.4001 49.2646 14.7621 49.2646 13.6841H49.2755Z" fill="white"/>
<path d="M56.4572 16.17H55.45L54.4319 12.518H54.3553L53.3371 16.17H52.3409L50.9834 11.209H51.9687L52.8554 14.993H52.9211L53.9392 11.209H54.8698L55.8879 14.993H55.9646L56.8404 11.209H57.8147L56.4572 16.17Z" fill="white"/>
<path d="M58.9533 11.209H59.8948V12.001H59.9714C60.0925 11.7177 60.2995 11.4801 60.563 11.3221C60.8264 11.164 61.1328 11.0937 61.4384 11.121C61.6781 11.1018 61.919 11.1372 62.1432 11.2246C62.3674 11.312 62.5691 11.4491 62.7333 11.6256C62.8974 11.8022 63.0198 12.0137 63.0913 12.2444C63.1628 12.4751 63.1816 12.719 63.1462 12.958V16.17H62.1719V13.2C62.1719 12.397 61.8216 12.001 61.0771 12.001C60.9124 11.986 60.7463 12.0087 60.5915 12.0674C60.4367 12.1261 60.2972 12.2193 60.1834 12.34C60.0696 12.4607 59.9845 12.6057 59.9345 12.7642C59.8845 12.9227 59.8709 13.0905 59.8948 13.255V16.17H58.9204L58.9533 11.209Z" fill="white"/>
<path d="M64.6899 9.28394H65.6861V16.1699H64.7118L64.6899 9.28394Z" fill="white"/>
<path d="M67.0217 13.6841C66.9998 13.3637 67.0437 13.0421 67.1507 12.7394C67.2577 12.4368 67.4255 12.1594 67.6437 11.9246C67.8619 11.6899 68.1257 11.5027 68.419 11.3747C68.7122 11.2467 69.0284 11.1807 69.3481 11.1807C69.6678 11.1807 69.984 11.2467 70.2772 11.3747C70.5704 11.5027 70.8343 11.6899 71.0525 11.9246C71.2707 12.1594 71.4385 12.4368 71.5455 12.7394C71.6525 13.0421 71.6964 13.3637 71.6745 13.6841C71.6964 14.0046 71.6525 14.3261 71.5455 14.6288C71.4385 14.9315 71.2707 15.2088 71.0525 15.4436C70.8343 15.6783 70.5704 15.8655 70.2772 15.9935C69.984 16.1215 69.6678 16.1876 69.3481 16.1876C69.0284 16.1876 68.7122 16.1215 68.419 15.9935C68.1257 15.8655 67.8619 15.6783 67.6437 15.4436C67.4255 15.2088 67.2577 14.9315 67.1507 14.6288C67.0437 14.3261 66.9998 14.0046 67.0217 13.6841ZM70.6673 13.6841C70.6673 12.5841 70.1856 11.9901 69.3426 11.9901C68.4996 11.9901 68.0289 12.6171 68.0289 13.6841C68.0289 14.7511 68.4996 15.4001 69.3426 15.4001C70.1856 15.4001 70.6673 14.7621 70.6673 13.6841Z" fill="white"/>
<path d="M72.6926 14.7621C72.6926 13.8711 73.3495 13.3651 74.5318 13.2881L75.8674 13.2001V12.7711C75.8674 12.2541 75.5171 11.9571 74.8493 11.9571C74.1815 11.9571 73.9297 12.1551 73.8312 12.5071H72.8787C72.9882 11.6491 73.7764 11.1101 74.8931 11.1101C76.0098 11.1101 76.8308 11.7261 76.8308 12.7711V16.1701H75.8893V15.4661H75.8127C75.6592 15.718 75.4409 15.9236 75.1807 16.061C74.9206 16.1985 74.6283 16.2628 74.3348 16.2471C74.1277 16.2686 73.9184 16.2463 73.7204 16.1815C73.5225 16.1167 73.3402 16.011 73.1855 15.871C73.0307 15.7311 72.9069 15.5601 72.822 15.3691C72.7371 15.1781 72.6931 14.9713 72.6926 14.7621ZM75.8674 14.3001V13.8821L74.6632 13.9591C73.9844 13.9591 73.667 14.2451 73.667 14.6741C73.667 15.1031 74.0611 15.3781 74.5866 15.3781C74.7416 15.3948 74.8985 15.3798 75.0477 15.3342C75.1969 15.2886 75.3354 15.2132 75.455 15.1126C75.5745 15.0119 75.6727 14.8881 75.7436 14.7485C75.8144 14.6089 75.8566 14.4564 75.8674 14.3001Z" fill="white"/>
<path d="M78.1117 13.6839C78.1117 12.1219 78.9109 11.1319 80.1589 11.1319C80.4667 11.1187 80.772 11.1932 81.0393 11.347C81.3067 11.5008 81.5253 11.7275 81.6697 12.0009H81.7354V9.28394H82.7098V16.1699H81.7792V15.3999H81.7026C81.5473 15.6706 81.3216 15.8935 81.0495 16.0447C80.7775 16.1959 80.4696 16.2696 80.1589 16.2579C78.9 16.2469 78.1117 15.2569 78.1117 13.6839ZM79.1189 13.6839C79.1189 14.7839 79.6116 15.3669 80.4326 15.3669C81.2537 15.3669 81.7573 14.7289 81.7573 13.6949C81.7573 12.6609 81.2428 12.0119 80.4326 12.0119C79.6225 12.0119 79.1189 12.6499 79.1189 13.6839Z" fill="white"/>
<path d="M86.7385 13.6841C86.7166 13.3637 86.7605 13.0421 86.8675 12.7394C86.9745 12.4368 87.1423 12.1594 87.3605 11.9246C87.5787 11.6899 87.8425 11.5027 88.1357 11.3747C88.4289 11.2467 88.7452 11.1807 89.0649 11.1807C89.3846 11.1807 89.7008 11.2467 89.994 11.3747C90.2872 11.5027 90.5511 11.6899 90.7693 11.9246C90.9874 12.1594 91.1552 12.4368 91.2622 12.7394C91.3692 13.0421 91.4132 13.3637 91.3913 13.6841C91.4132 14.0046 91.3692 14.3261 91.2622 14.6288C91.1552 14.9315 90.9874 15.2088 90.7693 15.4436C90.5511 15.6783 90.2872 15.8655 89.994 15.9935C89.7008 16.1215 89.3846 16.1876 89.0649 16.1876C88.7452 16.1876 88.4289 16.1215 88.1357 15.9935C87.8425 15.8655 87.5787 15.6783 87.3605 15.4436C87.1423 15.2088 86.9745 14.9315 86.8675 14.6288C86.7605 14.3261 86.7166 14.0046 86.7385 13.6841ZM90.3841 13.6841C90.3841 12.5841 89.9024 11.9901 89.0704 11.9901C88.2383 11.9901 87.7457 12.6171 87.7457 13.6841C87.7457 14.7511 88.2164 15.4001 89.0704 15.4001C89.9243 15.4001 90.3841 14.7621 90.3841 13.6841Z" fill="white"/>
<path d="M92.694 11.209H93.6246V12.001H93.7012C93.8269 11.7189 94.0365 11.4828 94.3011 11.3252C94.5658 11.1676 94.8725 11.0963 95.1792 11.121C95.418 11.1036 95.6577 11.1403 95.8805 11.2284C96.1033 11.3166 96.3036 11.4539 96.4665 11.6302C96.6294 11.8066 96.7507 12.0175 96.8216 12.2473C96.8925 12.4771 96.9111 12.72 96.8761 12.958V16.17H95.9127V13.2C95.9127 12.397 95.5623 12.001 94.8179 12.001C94.654 11.9877 94.4892 12.0117 94.3358 12.0712C94.1824 12.1307 94.0443 12.2242 93.9317 12.3446C93.8192 12.4651 93.7351 12.6095 93.6857 12.7671C93.6364 12.9247 93.6229 13.0915 93.6465 13.255V16.17H92.6721L92.694 11.209Z" fill="white"/>
<path d="M102.383 9.97705V11.2421H103.478V12.1001H102.383V14.6521C102.383 15.1691 102.591 15.4001 103.072 15.4001H103.445V16.2141C103.27 16.2263 103.094 16.2263 102.919 16.2141C101.824 16.2141 101.408 15.8401 101.408 14.8831V12.1001H100.62V11.2861H101.408V9.97705H102.383Z" fill="white"/>
<path d="M104.769 9.28394H105.744V12.0119H105.82C105.945 11.7306 106.152 11.4944 106.415 11.3351C106.677 11.1758 106.981 11.1011 107.287 11.1209C107.526 11.1073 107.765 11.147 107.987 11.2372C108.209 11.3273 108.408 11.4657 108.57 11.6424C108.732 11.819 108.854 12.0296 108.925 12.259C108.997 12.4884 109.017 12.7308 108.984 12.9689V16.1699H108.01V13.1999C108.01 12.4079 107.649 12.0119 106.915 12.0119C106.748 11.9987 106.58 12.022 106.422 12.0804C106.265 12.1387 106.122 12.2307 106.003 12.3498C105.885 12.469 105.793 12.6127 105.735 12.7708C105.677 12.929 105.654 13.0979 105.667 13.2659V16.1699H104.769V9.28394Z" fill="white"/>
<path d="M114.688 14.8279C114.555 15.2912 114.261 15.6909 113.859 15.9536C113.457 16.2163 112.974 16.3244 112.498 16.2579C112.172 16.2754 111.845 16.219 111.543 16.093C111.241 15.967 110.97 15.7745 110.752 15.5296C110.533 15.2848 110.372 14.9939 110.281 14.6783C110.189 14.3627 110.168 14.0304 110.221 13.7059C110.179 13.3815 110.206 13.0518 110.302 12.7389C110.397 12.4261 110.558 12.1374 110.774 11.8924C110.99 11.6474 111.255 11.4518 111.553 11.3187C111.85 11.1856 112.173 11.1182 112.498 11.1209C113.867 11.1209 114.688 12.0559 114.688 13.6179V13.9589H111.218V14.0139C111.205 14.1973 111.231 14.3814 111.295 14.5538C111.358 14.7263 111.457 14.8832 111.586 15.0142C111.714 15.1453 111.868 15.2474 112.039 15.3139C112.21 15.3804 112.392 15.4097 112.575 15.3999C112.809 15.4265 113.046 15.3834 113.257 15.2758C113.467 15.1683 113.641 15.001 113.757 14.7949L114.688 14.8279ZM111.272 13.1999H113.757C113.77 13.0334 113.747 12.8661 113.691 12.7088C113.635 12.5515 113.547 12.4076 113.433 12.2864C113.319 12.1653 113.18 12.0695 113.027 12.0051C112.873 11.9408 112.708 11.9094 112.542 11.9129C112.374 11.9114 112.207 11.9438 112.052 12.0081C111.896 12.0724 111.755 12.1673 111.637 12.2872C111.519 12.4072 111.425 12.5498 111.363 12.7065C111.3 12.8633 111.269 13.031 111.272 13.1999Z" fill="white"/>
</svg>
