<svg width="97" height="32" viewBox="0 0 97 32" fill="none" xmlns="http://www.w3.org/2000/svg">
<g clip-path="url(#clip0)">
<path d="M88.5898 0H6.89224C6.35862 0.00824216 5.82636 0.0563751 5.29985 0.144C4.77344 0.235406 4.26356 0.405279 3.78708 0.648C3.30746 0.891102 2.87154 1.21285 2.49724 1.6C2.11477 1.97671 1.79727 2.41468 1.55773 2.896C1.31617 3.37475 1.1471 3.88707 1.05613 4.416C0.967278 4.94468 0.922006 5.47983 0.920776 6.016C0.920776 6.264 0.920776 6.512 0.920776 6.752V25.248C0.920776 25.496 0.920776 25.736 0.920776 25.984C0.922006 26.5202 0.967278 27.0553 1.05613 27.584C1.14703 28.1155 1.31608 28.6305 1.55773 29.112C1.79949 29.5896 2.11679 30.0246 2.49724 30.4C2.87216 30.7843 3.30804 31.1033 3.78708 31.344C4.26356 31.5867 4.77344 31.7566 5.29985 31.848C5.82636 31.9356 6.35862 31.9837 6.89224 31.992H90.1902C90.7238 31.9841 91.2561 31.936 91.7826 31.848C92.3112 31.7554 92.8236 31.5856 93.3033 31.344C93.7811 31.1012 94.2166 30.7824 94.5931 30.4C94.9687 30.0204 95.2854 29.5862 95.5326 29.112C95.7682 28.6286 95.9344 28.1142 96.0263 27.584C96.1138 27.055 96.1617 26.5202 96.1696 25.984C96.1696 25.736 96.1696 25.496 96.1696 25.248V6.752C96.1696 6.512 96.1696 6.264 96.1696 6.016C96.1617 5.47981 96.1138 4.94498 96.0263 4.416C95.9344 3.88835 95.7682 3.37654 95.5326 2.896C95.2876 2.41806 94.9707 1.98093 94.5931 1.6C94.2166 1.21756 93.7811 0.898782 93.3033 0.656C92.8236 0.414379 92.3112 0.244581 91.7826 0.152C91.2561 0.0640196 90.7238 0.0158843 90.1902 0.008H88.5978L88.5898 0Z" fill="#B7B7B7"/>
<path d="M7.62907 31.2959H6.9125C6.41443 31.3046 5.91649 31.2725 5.42361 31.1999C4.95882 31.1083 4.51051 30.9465 4.09397 30.7199C3.6833 30.517 3.30924 30.2466 2.98726 29.9199C2.66169 29.5937 2.3926 29.2151 2.19106 28.7999C1.97902 28.3821 1.83137 27.9343 1.75315 27.4719C1.67221 26.9773 1.62961 26.4771 1.62576 25.9759C1.62576 25.8079 1.62576 25.2399 1.62576 25.2399V6.75191C1.62576 6.75191 1.62576 6.19991 1.62576 6.03991C1.62929 5.53867 1.67189 5.03847 1.75315 4.54391C1.82604 4.07617 1.9711 3.62272 2.1831 3.19991C2.38292 2.78365 2.65221 2.40484 2.97929 2.07991C3.30696 1.75635 3.68308 1.4864 4.09397 1.27991C4.50982 1.06686 4.95546 0.9185 5.41565 0.839914C5.91052 0.758165 6.411 0.715369 6.9125 0.711914H90.1866C90.6827 0.716133 91.1779 0.758927 91.6675 0.839914C92.1298 0.920181 92.5778 1.06844 92.9971 1.27991C93.8229 1.69968 94.4948 2.37196 94.916 3.19991C95.123 3.61629 95.2679 4.06107 95.3459 4.51991C95.4254 5.01752 95.4707 5.52005 95.4813 6.02391V6.73591C95.4813 7.03991 95.4813 7.32791 95.4813 7.61591V24.3679C95.4813 24.6639 95.4813 24.9439 95.4813 25.2319V25.9759C95.471 26.4718 95.4258 26.9664 95.3459 27.4559C95.2703 27.9204 95.1253 28.3708 94.916 28.7919C94.7109 29.2026 94.4421 29.578 94.1198 29.9039C93.7951 30.231 93.4184 30.5014 93.0051 30.7039C92.5911 30.9396 92.1422 31.107 91.6754 31.1999C91.1834 31.2832 90.6855 31.326 90.1866 31.3279H7.62907V31.2959Z" fill="black"/>
<path d="M20.6309 16.2399C20.6379 15.5718 20.8141 14.9164 21.1428 14.3356C21.4715 13.7548 21.942 13.2676 22.5099 12.9199C22.1491 12.4032 21.6735 11.978 21.1206 11.678C20.5678 11.3781 19.9531 11.2117 19.3252 11.1919C17.9955 11.0479 16.6977 11.9919 16.013 11.9919C15.3283 11.9919 14.2693 11.1919 13.1387 11.1919C12.4082 11.2158 11.6963 11.4296 11.0726 11.8124C10.4488 12.1951 9.93446 12.7339 9.57972 13.3759C8.07491 16.0879 9.18959 19.9999 10.6625 22.1919C11.403 23.2559 12.2549 24.4399 13.3935 24.3919C14.5321 24.3439 14.9063 23.6879 16.2439 23.6879C17.5815 23.6879 17.9477 24.3919 19.1022 24.3679C20.2567 24.3439 21.037 23.3039 21.7456 22.2319C22.2746 21.4763 22.683 20.6422 22.9558 19.7599C22.2664 19.4685 21.6779 18.9789 21.2643 18.3527C20.8507 17.7265 20.6304 16.9915 20.6309 16.2399Z" fill="white"/>
<path d="M18.4254 9.76808C19.0689 8.98757 19.3857 7.98663 19.3092 6.97607C18.3223 7.0831 17.4108 7.55673 16.7534 8.30407C16.1092 9.04432 15.7828 10.0108 15.8458 10.9921C16.3398 10.997 16.8286 10.8894 17.2753 10.6774C17.7221 10.4654 18.1153 10.1545 18.4254 9.76808Z" fill="white"/>
<path d="M34.5882 21.7121H30.8222L29.9145 24.4001H28.3221L31.8891 14.4641H33.5531L37.1201 24.4001H35.5277L34.5882 21.7121ZM31.2123 20.4721H34.1981L32.7569 16.1121H32.7171L31.2123 20.4721Z" fill="white"/>
<path d="M44.8273 20.8001C44.8273 23.0481 43.625 24.4961 41.8177 24.4961C41.3565 24.5157 40.8992 24.4045 40.4979 24.1753C40.0967 23.9462 39.7677 23.6082 39.5485 23.2001V26.7841H38.0357V17.1841H39.4689V18.4001C39.7016 17.9978 40.0384 17.6664 40.4436 17.441C40.8487 17.2156 41.3071 17.1047 41.7699 17.1201C43.625 17.0801 44.8273 18.5281 44.8273 20.8001ZM43.3066 20.8001C43.3066 19.3361 42.5104 18.4001 41.4036 18.4001C40.2969 18.4001 39.5087 19.3841 39.5087 20.8001C39.5087 22.2161 40.3049 23.2401 41.4036 23.2401C42.5024 23.2401 43.3066 22.2561 43.3066 20.8001Z" fill="white"/>
<path d="M52.7574 20.8001C52.7574 23.0481 51.5631 24.4961 49.7557 24.4961C49.2944 24.5166 48.8367 24.4059 48.4353 24.1766C48.0339 23.9473 47.705 23.6088 47.4866 23.2001V26.784H45.9738V17.1841H47.407V18.4001C47.6391 17.999 47.9746 17.6684 48.3782 17.4431C48.7818 17.2178 49.2385 17.1062 49.7 17.1201C51.5551 17.0801 52.7574 18.5281 52.7574 20.8001ZM51.2367 20.8001C51.2367 19.3361 50.4882 18.4001 49.3338 18.4001C48.1793 18.4001 47.4468 19.3841 47.4468 20.8001C47.4468 22.2161 48.2032 23.2001 49.3338 23.2001C50.4644 23.2001 51.2367 22.2561 51.2367 20.8001Z" fill="white"/>
<path d="M58.0043 21.5999C58.1158 22.5839 59.0633 23.1999 60.3929 23.1999C61.7226 23.1999 62.5347 22.5519 62.5347 21.6639C62.5347 20.7759 61.9933 20.4319 60.7114 20.1119L59.4295 19.7999C57.6142 19.3599 56.7782 18.5119 56.7782 17.1279C56.7782 15.4079 58.2591 14.2319 60.369 14.2319C62.4789 14.2319 63.8962 15.4079 63.9439 17.1279H62.4232C62.3356 16.1359 61.5155 15.5279 60.3292 15.5279C59.1429 15.5279 58.3228 16.1279 58.3228 17.0159C58.3228 17.7119 58.8403 18.1279 60.1142 18.4479L61.205 18.7119C63.2353 19.1919 64.0793 20.0159 64.0793 21.4639C64.0793 23.3279 62.5984 24.4879 60.2576 24.4879C58.068 24.4879 56.5871 23.3519 56.4915 21.5599L58.0043 21.5999Z" fill="white"/>
<path d="M67.272 15.4399V17.1519H68.6415V18.3279H67.272V22.3279C67.272 22.9439 67.5428 23.2319 68.1479 23.2319C68.3096 23.2419 68.4718 23.2419 68.6336 23.2319V24.3999C68.3711 24.4496 68.1044 24.4738 67.8374 24.4719C66.3723 24.4719 65.807 23.9199 65.807 22.5119V18.3279H64.7322V17.1519H65.7832V15.4399H67.272Z" fill="white"/>
<path d="M69.4297 20.7999C69.4297 18.5199 70.7673 17.0879 72.8533 17.0879C74.9394 17.0879 76.269 18.5199 76.269 20.7999C76.269 23.0799 74.9553 24.4879 72.8533 24.4879C70.7514 24.4879 69.4297 23.0639 69.4297 20.7999ZM74.7642 20.7999C74.7642 19.2399 74.0476 18.3119 72.8533 18.3119C71.659 18.3119 70.9743 19.1999 70.9743 20.7999C70.9743 22.3999 71.6829 23.2879 72.8852 23.2879C74.0874 23.2879 74.7642 22.3439 74.7642 20.7999Z" fill="white"/>
<path d="M77.4952 17.1521H78.9363V18.4001C79.0328 18.0156 79.258 17.6762 79.574 17.4388C79.89 17.2014 80.2777 17.0804 80.672 17.0961C80.8435 17.0933 81.0147 17.1121 81.1816 17.1521V18.5441C80.9742 18.4574 80.7531 18.4087 80.5287 18.4001C80.3063 18.3837 80.0831 18.4175 79.8754 18.4989C79.6677 18.5803 79.4807 18.7072 79.3281 18.8706C79.1755 19.0339 79.0611 19.2294 78.9933 19.4428C78.9255 19.6562 78.906 19.8821 78.9363 20.1041V24.4001H77.4952V17.1521Z" fill="white"/>
<path d="M87.997 22.272C87.7979 23.584 86.524 24.488 84.8998 24.488C82.7978 24.488 81.5 23.072 81.5 20.808C81.5 18.544 82.8058 17.064 84.8361 17.064C86.8664 17.064 88.0845 18.44 88.0845 20.64V21.144H82.9889V21.24C82.9661 21.5065 83 21.7748 83.0883 22.0272C83.1765 22.2796 83.3172 22.5103 83.5009 22.7039C83.6846 22.8975 83.9071 23.0498 84.1538 23.1504C84.4004 23.2511 84.6656 23.298 84.9316 23.288C85.2808 23.3207 85.6312 23.2396 85.9309 23.0566C86.2307 22.8736 86.4637 22.5985 86.5957 22.272H87.997ZM82.9968 20.104H86.6036C86.6169 19.8646 86.5807 19.6251 86.4973 19.4006C86.4139 19.176 86.2851 18.9712 86.1191 18.7991C85.953 18.627 85.7533 18.4913 85.5325 18.4006C85.3117 18.3099 85.0746 18.2661 84.8361 18.272C84.5956 18.2709 84.3572 18.3175 84.1347 18.409C83.9121 18.5005 83.7096 18.6351 83.5388 18.8052C83.368 18.9753 83.2323 19.1776 83.1393 19.4004C83.0463 19.6233 82.9979 19.8623 82.9968 20.104Z" fill="white"/>
<path d="M31.0292 6.98398C31.3416 6.96187 31.6549 7.01016 31.9464 7.12534C32.2378 7.24052 32.4999 7.41967 32.7136 7.6497C32.9273 7.87973 33.0871 8.15483 33.1814 8.45489C33.2757 8.75494 33.302 9.07237 33.2585 9.38398C33.2585 10.904 32.4623 11.784 31.0292 11.784H29.3094V6.98398H31.0292ZM30.0499 11.08H30.9416C31.1651 11.0981 31.3898 11.0653 31.5989 10.984C31.808 10.9026 31.9961 10.7749 32.1492 10.6103C32.3023 10.4457 32.4164 10.2485 32.4831 10.0334C32.5497 9.81826 32.5671 9.59081 32.534 9.36798C32.5656 9.14543 32.5471 8.91859 32.4799 8.70417C32.4127 8.48975 32.2985 8.29318 32.1457 8.12894C31.993 7.9647 31.8055 7.83696 31.5971 7.75511C31.3887 7.67326 31.1647 7.63939 30.9416 7.65598H30.0499V11.08Z" fill="white"/>
<path d="M34.0946 9.95204C34.0786 9.71898 34.1106 9.48513 34.1884 9.265C34.2662 9.04487 34.3882 8.84317 34.5469 8.67242C34.7056 8.50168 34.8975 8.36554 35.1107 8.27246C35.324 8.17938 35.554 8.13135 35.7865 8.13135C36.019 8.13135 36.249 8.17938 36.4622 8.27246C36.6754 8.36554 36.8674 8.50168 37.026 8.67242C37.1847 8.84317 37.3067 9.04487 37.3845 9.265C37.4624 9.48513 37.4943 9.71898 37.4784 9.95204C37.4943 10.1851 37.4624 10.4189 37.3845 10.6391C37.3067 10.8592 37.1847 11.0609 37.026 11.2316C36.8674 11.4024 36.6754 11.5385 36.4622 11.6316C36.249 11.7247 36.019 11.7727 35.7865 11.7727C35.554 11.7727 35.324 11.7247 35.1107 11.6316C34.8975 11.5385 34.7056 11.4024 34.5469 11.2316C34.3882 11.0609 34.2662 10.8592 34.1884 10.6391C34.1106 10.4189 34.0786 10.1851 34.0946 9.95204ZM36.7459 9.95204C36.7459 9.15204 36.4035 8.72004 35.7904 8.72004C35.1774 8.72004 34.8271 9.17604 34.8271 9.95204C34.8271 10.728 35.1455 11.2 35.7904 11.2C36.4354 11.2 36.7379 10.736 36.7379 9.95204H36.7459Z" fill="white"/>
<path d="M41.9689 11.7601H41.2364L40.496 9.1041H40.4402L39.6998 11.7601H38.9752L37.9879 8.1521H38.7045L39.3494 10.9041H39.3972L40.1377 8.1521H40.8144L41.5549 10.9041H41.6106L42.2476 8.1521H42.9562L41.9689 11.7601Z" fill="white"/>
<path d="M43.7843 8.15193H44.469V8.72793H44.5247C44.6128 8.52191 44.7633 8.3491 44.9549 8.23417C45.1465 8.11924 45.3694 8.06805 45.5916 8.08793C45.766 8.07399 45.9412 8.09975 46.1042 8.16329C46.2673 8.22683 46.414 8.32652 46.5333 8.45494C46.6527 8.58335 46.7417 8.73717 46.7937 8.90494C46.8457 9.07272 46.8594 9.25012 46.8337 9.42393V11.7599H46.1251V9.59993C46.1251 9.01593 45.8703 8.72793 45.3289 8.72793C45.209 8.717 45.0883 8.7335 44.9757 8.7762C44.8631 8.8189 44.7616 8.88668 44.6789 8.97446C44.5961 9.06223 44.5342 9.16772 44.4979 9.28298C44.4615 9.39824 44.4516 9.52028 44.469 9.63993V11.7599H43.7604L43.7843 8.15193Z" fill="white"/>
<path d="M47.9563 6.75195H48.6809V11.76H47.9723L47.9563 6.75195Z" fill="white"/>
<path d="M49.6522 9.95204C49.6363 9.71898 49.6683 9.48513 49.7461 9.265C49.8239 9.04487 49.9459 8.84317 50.1046 8.67242C50.2633 8.50168 50.4552 8.36554 50.6684 8.27246C50.8816 8.17938 51.1117 8.13135 51.3441 8.13135C51.5766 8.13135 51.8066 8.17938 52.0199 8.27246C52.2331 8.36554 52.425 8.50168 52.5837 8.67242C52.7424 8.84317 52.8644 9.04487 52.9422 9.265C53.02 9.48513 53.052 9.71898 53.0361 9.95204C53.052 10.1851 53.02 10.4189 52.9422 10.6391C52.8644 10.8592 52.7424 11.0609 52.5837 11.2316C52.425 11.4024 52.2331 11.5385 52.0199 11.6316C51.8066 11.7247 51.5766 11.7727 51.3441 11.7727C51.1117 11.7727 50.8816 11.7247 50.6684 11.6316C50.4552 11.5385 50.2633 11.4024 50.1046 11.2316C49.9459 11.0609 49.8239 10.8592 49.7461 10.6391C49.6683 10.4189 49.6363 10.1851 49.6522 9.95204ZM52.3036 9.95204C52.3036 9.15204 51.9532 8.72004 51.3402 8.72004C50.7271 8.72004 50.3847 9.17604 50.3847 9.95204C50.3847 10.728 50.7271 11.2 51.3402 11.2C51.9532 11.2 52.3036 10.736 52.3036 9.95204Z" fill="white"/>
<path d="M53.7765 10.7361C53.7765 10.0881 54.2542 9.72008 55.1141 9.66408L56.0855 9.60008V9.28808C56.0855 8.91208 55.8307 8.69608 55.345 8.69608C54.8593 8.69608 54.6762 8.84008 54.6046 9.09608H53.9119C53.9915 8.47208 54.5648 8.08008 55.3769 8.08008C56.189 8.08008 56.7861 8.52808 56.7861 9.28808V11.7601H56.1014V11.2481H56.0457C55.9341 11.4313 55.7753 11.5808 55.5861 11.6808C55.3969 11.7807 55.1843 11.8275 54.9708 11.8161C54.8202 11.8317 54.668 11.8155 54.524 11.7684C54.3801 11.7213 54.2475 11.6443 54.135 11.5426C54.0224 11.4408 53.9324 11.3164 53.8706 11.1775C53.8089 11.0386 53.7768 10.8882 53.7765 10.7361ZM56.0855 10.4001V10.0961L55.2097 10.1521C54.716 10.1521 54.4851 10.3601 54.4851 10.6721C54.4851 10.9841 54.7718 11.1841 55.1539 11.1841C55.2667 11.1962 55.3808 11.1853 55.4893 11.1521C55.5978 11.119 55.6985 11.0641 55.7855 10.991C55.8725 10.9178 55.9438 10.8277 55.9954 10.7262C56.0469 10.6247 56.0776 10.5138 56.0855 10.4001Z" fill="white"/>
<path d="M57.7177 9.95196C57.7177 8.81596 58.2989 8.09595 59.2066 8.09595C59.4304 8.08629 59.6524 8.14053 59.8468 8.25237C60.0413 8.36422 60.2002 8.52911 60.3053 8.72796H60.3531V6.75195H61.0617V11.76H60.3849V11.2H60.3292C60.2163 11.3968 60.0521 11.5589 59.8543 11.6689C59.6564 11.7788 59.4325 11.8325 59.2066 11.824C58.2909 11.816 57.7177 11.096 57.7177 9.95196ZM58.4502 9.95196C58.4502 10.752 58.8085 11.176 59.4056 11.176C60.0027 11.176 60.369 10.712 60.369 9.95996C60.369 9.20796 59.9948 8.73596 59.4056 8.73596C58.8164 8.73596 58.4502 9.19996 58.4502 9.95196Z" fill="white"/>
<path d="M63.9917 9.95204C63.9758 9.71898 64.0078 9.48513 64.0856 9.265C64.1634 9.04487 64.2854 8.84317 64.4441 8.67242C64.6028 8.50168 64.7947 8.36554 65.0079 8.27246C65.2211 8.17938 65.4512 8.13135 65.6836 8.13135C65.9161 8.13135 66.1461 8.17938 66.3594 8.27246C66.5726 8.36554 66.7645 8.50168 66.9232 8.67242C67.0819 8.84317 67.2039 9.04487 67.2817 9.265C67.3595 9.48513 67.3915 9.71898 67.3756 9.95204C67.3915 10.1851 67.3595 10.4189 67.2817 10.6391C67.2039 10.8592 67.0819 11.0609 66.9232 11.2316C66.7645 11.4024 66.5726 11.5385 66.3594 11.6316C66.1461 11.7247 65.9161 11.7727 65.6836 11.7727C65.4512 11.7727 65.2211 11.7247 65.0079 11.6316C64.7947 11.5385 64.6028 11.4024 64.4441 11.2316C64.2854 11.0609 64.1634 10.8592 64.0856 10.6391C64.0078 10.4189 63.9758 10.1851 63.9917 9.95204ZM66.6431 9.95204C66.6431 9.15204 66.2927 8.72004 65.6876 8.72004C65.0825 8.72004 64.7242 9.17604 64.7242 9.95204C64.7242 10.728 65.0666 11.2 65.6876 11.2C66.3087 11.2 66.6431 10.736 66.6431 9.95204Z" fill="white"/>
<path d="M68.323 8.15195H68.9997V8.72795H69.0555C69.1469 8.52277 69.2993 8.35108 69.4918 8.23648C69.6843 8.12187 69.9073 8.06999 70.1304 8.08795C70.3041 8.07528 70.4784 8.10198 70.6404 8.16609C70.8025 8.23019 70.9481 8.33006 71.0666 8.45832C71.1851 8.58657 71.2733 8.73993 71.3249 8.90707C71.3765 9.07421 71.39 9.25086 71.3645 9.42395V11.76H70.6638V9.59995C70.6638 9.01595 70.409 8.72795 69.8676 8.72795C69.7484 8.7183 69.6286 8.73576 69.517 8.77903C69.4054 8.82229 69.305 8.89026 69.2231 8.97788C69.1413 9.06549 69.0801 9.17051 69.0442 9.28513C69.0083 9.39975 68.9985 9.52103 69.0157 9.63995V11.76H68.307L68.323 8.15195Z" fill="white"/>
<path d="M75.3693 7.2561V8.1761H76.1655V8.8001H75.3693V10.6561C75.3693 11.0321 75.5206 11.2001 75.871 11.2001H76.1417V11.7921C76.0144 11.801 75.8867 11.801 75.7595 11.7921C74.9633 11.7921 74.6607 11.5201 74.6607 10.8241V8.8001H74.0875V8.2081H74.6607V7.2561H75.3693Z" fill="white"/>
<path d="M77.105 6.75195H77.8137V8.73595H77.8694C77.96 8.53136 78.1109 8.35957 78.3016 8.24372C78.4924 8.12786 78.7139 8.0735 78.9363 8.08795C79.11 8.07804 79.2838 8.10691 79.4451 8.17248C79.6063 8.23805 79.7512 8.33869 79.8692 8.46718C79.9872 8.59567 80.0754 8.74882 80.1274 8.91563C80.1795 9.08244 80.1942 9.25877 80.1704 9.43195V11.76H79.4618V9.59995C79.4618 9.02395 79.199 8.73595 78.6656 8.73595C78.544 8.72632 78.4217 8.74331 78.3072 8.78573C78.1927 8.82816 78.0888 8.89502 78.0025 8.98171C77.9162 9.06839 77.8497 9.17285 77.8075 9.28787C77.7652 9.40289 77.7483 9.52574 77.7579 9.64795V11.76H77.105V6.75195Z" fill="white"/>
<path d="M84.3186 10.784C84.2222 11.1209 84.0081 11.4116 83.7156 11.6026C83.423 11.7937 83.0717 11.8723 82.7262 11.824C82.4885 11.8367 82.251 11.7957 82.0312 11.704C81.8114 11.6123 81.6148 11.4723 81.4559 11.2943C81.2971 11.1162 81.1799 10.9047 81.1132 10.6751C81.0464 10.4456 81.0317 10.204 81.0701 9.96795C81.0393 9.73201 81.0593 9.49219 81.1286 9.26467C81.198 9.03714 81.3151 8.82721 81.472 8.64903C81.629 8.47084 81.8222 8.32856 82.0385 8.23177C82.2549 8.13498 82.4894 8.08594 82.7262 8.08795C83.7214 8.08795 84.3186 8.76795 84.3186 9.90395V10.152H81.7946V10.192C81.7854 10.3253 81.8045 10.4592 81.8506 10.5846C81.8968 10.71 81.9689 10.8241 82.0622 10.9194C82.1556 11.0147 82.268 11.089 82.3921 11.1374C82.5161 11.1857 82.649 11.2071 82.7819 11.2C82.9524 11.2193 83.1247 11.1879 83.2776 11.1097C83.4305 11.0315 83.5571 10.9098 83.6418 10.76L84.3186 10.784ZM81.8344 9.59995H83.6418C83.6507 9.47881 83.6343 9.35714 83.5937 9.24274C83.5531 9.12833 83.4891 9.02372 83.4059 8.93559C83.3227 8.84747 83.2221 8.77779 83.1105 8.73101C82.9989 8.68423 82.8789 8.66139 82.758 8.66395C82.6358 8.66286 82.5145 8.68639 82.4014 8.73315C82.2884 8.7799 82.1858 8.84893 82.0997 8.93617C82.0136 9.02342 81.9458 9.1271 81.9002 9.2411C81.8547 9.3551 81.8323 9.47712 81.8344 9.59995Z" fill="white"/>
</g>
<defs>
<clipPath id="clip0">
<rect width="95.2727" height="32" fill="white" transform="translate(0.90918)"/>
</clipPath>
</defs>
</svg>
